{
    "asset" : {
        "extensions" : {
            "ASOBO_normal_map_convention" : {
                "tangent_space_convention" : "DirectX"
            }
        },
        "generator" : "Khronos glTF Blender I/O v3.3.36 and Asobo Studio MSFS Blender I/O v1.3.0",
        "version" : "2.0"
    },
    "extensionsUsed" : [
        "ASOBO_normal_map_convention"
    ],
    "scene" : 0,
    "scenes" : [
        {
            "name" : "Scene",
            "nodes" : [
                5
            ]
        }
    ],
    "nodes" : [
        {
            "mesh" : 0,
            "name" : "node2"
        },
        {
            "mesh" : 1,
            "name" : "node3"
        },
        {
            "mesh" : 2,
            "name" : "node4"
        },
        {
            "mesh" : 3,
            "name" : "node5"
        },
        {
            "children" : [
                0,
                1,
                2,
                3
            ],
            "name" : "node1"
        },
        {
            "children" : [
                4
            ],
            "name" : "node0"
        }
    ],
    "materials" : [
        {
            "doubleSided" : true,
            "emissiveFactor" : [
                1,
                1,
                1
            ],
            "emissiveTexture" : {
                "index" : 0
            },
            "name" : "m2mat",
            "pbrMetallicRoughness" : {
                "baseColorTexture" : {
                    "index" : 1
                },
                "metallicFactor" : 0,
                "roughnessFactor" : 0.5
            }
        },
        {
            "doubleSided" : true,
            "emissiveFactor" : [
                1,
                1,
                1
            ],
            "emissiveTexture" : {
                "index" : 2
            },
            "name" : "m1mat",
            "pbrMetallicRoughness" : {
                "baseColorTexture" : {
                    "index" : 3
                },
                "metallicFactor" : 0,
                "roughnessFactor" : 0.5
            }
        },
        {
            "doubleSided" : true,
            "emissiveFactor" : [
                1,
                1,
                1
            ],
            "emissiveTexture" : {
                "index" : 4
            },
            "name" : "m0mat",
            "pbrMetallicRoughness" : {
                "baseColorTexture" : {
                    "index" : 5
                },
                "metallicFactor" : 0,
                "roughnessFactor" : 0.5
            }
        },
        {
            "doubleSided" : true,
            "emissiveFactor" : [
                1,
                1,
                1
            ],
            "emissiveTexture" : {
                "index" : 6
            },
            "name" : "m3mat",
            "pbrMetallicRoughness" : {
                "baseColorTexture" : {
                    "index" : 7
                },
                "metallicFactor" : 0,
                "roughnessFactor" : 0.5
            }
        }
    ],
    "meshes" : [
        {
            "name" : "node2",
            "primitives" : [
                {
                    "attributes" : {
                        "POSITION" : 0,
                        "NORMAL" : 1,
                        "TEXCOORD_0" : 2
                    },
                    "indices" : 3,
                    "material" : 0
                }
            ]
        },
        {
            "name" : "node3",
            "primitives" : [
                {
                    "attributes" : {
                        "POSITION" : 4,
                        "NORMAL" : 5,
                        "TEXCOORD_0" : 6
                    },
                    "indices" : 7,
                    "material" : 1
                }
            ]
        },
        {
            "name" : "node4",
            "primitives" : [
                {
                    "attributes" : {
                        "POSITION" : 8,
                        "NORMAL" : 9,
                        "TEXCOORD_0" : 10
                    },
                    "indices" : 11,
                    "material" : 2
                }
            ]
        },
        {
            "name" : "node5",
            "primitives" : [
                {
                    "attributes" : {
                        "POSITION" : 12,
                        "NORMAL" : 13,
                        "TEXCOORD_0" : 14
                    },
                    "indices" : 15,
                    "material" : 3
                }
            ]
        }
    ],
    "textures" : [
        {
            "sampler" : 0,
            "source" : 0
        },
        {
            "sampler" : 0,
            "source" : 1
        },
        {
            "sampler" : 0,
            "source" : 2
        },
        {
            "sampler" : 0,
            "source" : 3
        },
        {
            "sampler" : 0,
            "source" : 4
        },
        {
            "sampler" : 0,
            "source" : 5
        },
        {
            "sampler" : 0,
            "source" : 6
        },
        {
            "sampler" : 0,
            "source" : 7
        }
    ],
    "images" : [
        {
            "mimeType" : "image/png",
            "name" : "muan3_lm",
            "uri" : "muan3_lm.png"
        },
        {
            "mimeType" : "image/png",
            "name" : "muan3",
            "uri" : "muan3.png"
        },
        {
            "mimeType" : "image/png",
            "name" : "muan2_lm",
            "uri" : "muan2_lm.png"
        },
        {
            "mimeType" : "image/png",
            "name" : "muan2",
            "uri" : "muan2.png"
        },
        {
            "mimeType" : "image/png",
            "name" : "muan1_lm",
            "uri" : "muan1_lm.png"
        },
        {
            "mimeType" : "image/png",
            "name" : "muan1",
            "uri" : "muan1.png"
        },
        {
            "mimeType" : "image/png",
            "name" : "muan4_lm",
            "uri" : "muan4_lm.png"
        },
        {
            "mimeType" : "image/png",
            "name" : "muan4",
            "uri" : "muan4.png"
        }
    ],
    "accessors" : [
        {
            "bufferView" : 0,
            "componentType" : 5126,
            "count" : 867,
            "max" : [
                78.01455688476562,
                24.60342025756836,
                95.48676300048828
            ],
            "min" : [
                -77.98545837402344,
                0.0033500001300126314,
                28.390552520751953
            ],
            "type" : "VEC3"
        },
        {
            "bufferView" : 1,
            "componentType" : 5126,
            "count" : 867,
            "type" : "VEC3"
        },
        {
            "bufferView" : 2,
            "componentType" : 5126,
            "count" : 867,
            "type" : "VEC2"
        },
        {
            "bufferView" : 3,
            "componentType" : 5123,
            "count" : 2316,
            "type" : "SCALAR"
        },
        {
            "bufferView" : 4,
            "componentType" : 5126,
            "count" : 4396,
            "max" : [
                318.0794982910156,
                18.881572723388672,
                96.32671356201172
            ],
            "min" : [
                -420.3839111328125,
                0.0033500001300126314,
                1.0423799753189087
            ],
            "type" : "VEC3"
        },
        {
            "bufferView" : 5,
            "componentType" : 5126,
            "count" : 4396,
            "type" : "VEC3"
        },
        {
            "bufferView" : 6,
            "componentType" : 5126,
            "count" : 4396,
            "type" : "VEC2"
        },
        {
            "bufferView" : 7,
            "componentType" : 5123,
            "count" : 13458,
            "type" : "SCALAR"
        },
        {
            "bufferView" : 8,
            "componentType" : 5126,
            "count" : 16141,
            "max" : [
                502.05645751953125,
                33.5453987121582,
                214.97679138183594
            ],
            "min" : [
                -509.6358642578125,
                -0.1516599953174591,
                -56.5412483215332
            ],
            "type" : "VEC3"
        },
        {
            "bufferView" : 9,
            "componentType" : 5126,
            "count" : 16141,
            "type" : "VEC3"
        },
        {
            "bufferView" : 10,
            "componentType" : 5126,
            "count" : 16141,
            "type" : "VEC2"
        },
        {
            "bufferView" : 11,
            "componentType" : 5123,
            "count" : 26790,
            "type" : "SCALAR"
        },
        {
            "bufferView" : 12,
            "componentType" : 5126,
            "count" : 34155,
            "max" : [
                463.39385986328125,
                20.377239227294922,
                112.88890075683594
            ],
            "min" : [
                -231.6622772216797,
                0,
                -15.331939697265625
            ],
            "type" : "VEC3"
        },
        {
            "bufferView" : 13,
            "componentType" : 5126,
            "count" : 34155,
            "type" : "VEC3"
        },
        {
            "bufferView" : 14,
            "componentType" : 5126,
            "count" : 34155,
            "type" : "VEC2"
        },
        {
            "bufferView" : 15,
            "componentType" : 5123,
            "count" : 36498,
            "type" : "SCALAR"
        }
    ],
    "bufferViews" : [
        {
            "buffer" : 0,
            "byteLength" : 10404,
            "byteOffset" : 0,
            "target" : 34962
        },
        {
            "buffer" : 0,
            "byteLength" : 10404,
            "byteOffset" : 10404,
            "target" : 34962
        },
        {
            "buffer" : 0,
            "byteLength" : 6936,
            "byteOffset" : 20808,
            "target" : 34962
        },
        {
            "buffer" : 0,
            "byteLength" : 4632,
            "byteOffset" : 27744,
            "target" : 34963
        },
        {
            "buffer" : 0,
            "byteLength" : 52752,
            "byteOffset" : 32376,
            "target" : 34962
        },
        {
            "buffer" : 0,
            "byteLength" : 52752,
            "byteOffset" : 85128,
            "target" : 34962
        },
        {
            "buffer" : 0,
            "byteLength" : 35168,
            "byteOffset" : 137880,
            "target" : 34962
        },
        {
            "buffer" : 0,
            "byteLength" : 26916,
            "byteOffset" : 173048,
            "target" : 34963
        },
        {
            "buffer" : 0,
            "byteLength" : 193692,
            "byteOffset" : 199964,
            "target" : 34962
        },
        {
            "buffer" : 0,
            "byteLength" : 193692,
            "byteOffset" : 393656,
            "target" : 34962
        },
        {
            "buffer" : 0,
            "byteLength" : 129128,
            "byteOffset" : 587348,
            "target" : 34962
        },
        {
            "buffer" : 0,
            "byteLength" : 53580,
            "byteOffset" : 716476,
            "target" : 34963
        },
        {
            "buffer" : 0,
            "byteLength" : 409860,
            "byteOffset" : 770056,
            "target" : 34962
        },
        {
            "buffer" : 0,
            "byteLength" : 409860,
            "byteOffset" : 1179916,
            "target" : 34962
        },
        {
            "buffer" : 0,
            "byteLength" : 273240,
            "byteOffset" : 1589776,
            "target" : 34962
        },
        {
            "buffer" : 0,
            "byteLength" : 72996,
            "byteOffset" : 1863016,
            "target" : 34963
        }
    ],
    "samplers" : [
        {
            "magFilter" : 9729,
            "minFilter" : 9987
        }
    ],
    "buffers" : [
        {
            "byteLength" : 1936012,
            "uri" : "terminal.bin"
        }
    ]
}
